# xmcd
#
# Track frame offsets:
#	150
#	15137
#	27342
#	64810
#
# Disc length: 1751 seconds
# Revision: 0
# Processed by: cddbd v1.5.2PL0 Copyright (c) Steve Scherf et al.
# Submitted via: dBpowerAMP V12.0
#
DISCID=2406d504
DTITLE=Northern Line - Run For Your Life
DYEAR=1999
DGENRE=Pop
TTITLE0=Run For Your Life [Radio Mix]
TTITLE1=First Time
TTITLE2=Interview With Margherita Taylor
TTITLE3=DATA
EXTD=
EXTT0=
EXTT1=
EXTT2=
EXTT3=
PLAYORDER=
